<?xml version="1.0" encoding="utf-8"?>
<!-- Generator: Adobe Illustrator 20.1.0, SVG Export Plug-In . SVG Version: 6.00 Build 0)  -->
<svg version="1.1" xmlns="http://www.w3.org/2000/svg" xmlns:xlink="http://www.w3.org/1999/xlink" x="0px" y="0px"
	 viewBox="0 0 27.3 36" style="enable-background:new 0 0 27.3 36;" xml:space="preserve">
<style type="text/css">
	.st0{opacity:0.5;fill:none;stroke:#D0ECF0;stroke-width:0.5756;stroke-linecap:round;stroke-linejoin:round;stroke-miterlimit:10;}
	.st1{opacity:0.5;}
	.st2{fill:none;stroke:#D0ECF0;stroke-width:0.4688;stroke-linecap:round;stroke-linejoin:round;stroke-miterlimit:10;}
	.st3{fill:#FFFFFF;}
	.st4{fill:none;stroke:#362FC1;stroke-linecap:round;stroke-linejoin:round;stroke-miterlimit:10;}
	.st5{fill:none;stroke:#362FC1;stroke-miterlimit:10;}
	.st6{fill:none;stroke:#362FC1;stroke-linecap:round;stroke-miterlimit:10;}
	.st7{fill:#FFFFFF;stroke:#362FC1;stroke-miterlimit:10;}
	.st8{fill:#362FC1;}
</style>
<g id="Grid">
</g>
<g id="Layer_1">
	<g>
		<path class="st8" d="M17.3,5.3c-0.2-0.2-0.5-0.1-0.7,0.1c-0.2,0.2-0.1,0.5,0.1,0.7c1.9,1.4,3,3.6,3,5.9c0,4.1-3.3,7.4-7.4,7.4
			c-1,0-2-0.2-2.9-0.6c-0.3-0.1-0.5,0-0.7,0.3c-0.1,0.3,0,0.5,0.3,0.7c1,0.4,2.1,0.7,3.3,0.7c4.6,0,8.4-3.8,8.4-8.4
			C20.7,9.4,19.4,6.8,17.3,5.3z"/>
		<path class="st8" d="M4.9,12c0-4.1,3.3-7.4,7.4-7.4c1,0,2,0.2,2.9,0.6c0.3,0.1,0.5,0,0.7-0.3c0.1-0.3,0-0.5-0.3-0.7
			c-1-0.4-2.1-0.7-3.3-0.7c-4.6,0-8.4,3.8-8.4,8.4c0,2.6,1.3,5.2,3.4,6.7c0.1,0.1,0.2,0.1,0.3,0.1c0.2,0,0.3-0.1,0.4-0.2
			c0.2-0.2,0.1-0.5-0.1-0.7C6,16.5,4.9,14.3,4.9,12z"/>
		<path class="st8" d="M26.9,32.2l-6.7-11.5c2.3-2.2,3.7-5.3,3.7-8.7c0-6.6-5.4-12-12-12S0,5.4,0,12s5.4,12,12,12
			c1.4,0,2.7-0.3,4-0.7l6.7,11.4c0.3,0.6,0.9,1,1.5,1.2c0.2,0.1,0.4,0.1,0.6,0.1c0.4,0,0.9-0.1,1.3-0.3
			C27.2,34.9,27.6,33.4,26.9,32.2z M1,12C1,5.9,5.9,1,12,1s11,4.9,11,11S18,23,12,23S1,18.1,1,12z M25.5,34.8
			c-0.3,0.2-0.7,0.3-1.1,0.2c-0.4-0.1-0.7-0.3-0.9-0.7l-6.6-11.3c0.9-0.4,1.8-0.9,2.6-1.6l6.6,11.3C26.5,33.4,26.3,34.3,25.5,34.8z"
			/>
		<path class="st8" d="M9.8,10C9.7,9.8,9.3,9.8,9.1,10l-2,1.7C7.1,11.7,7,11.9,7,12s0.1,0.3,0.2,0.4l2.1,1.7
			c0.1,0.1,0.2,0.1,0.3,0.1c0.1,0,0.3-0.1,0.4-0.2c0.2-0.2,0.2-0.5-0.1-0.7L8.3,12l1.5-1.3C10,10.6,10,10.2,9.8,10z"/>
		<path class="st8" d="M14.6,14.1c0.1,0.1,0.2,0.2,0.4,0.2c0.1,0,0.2,0,0.3-0.1l2.1-1.7c0.1-0.1,0.2-0.2,0.2-0.4
			c0-0.1-0.1-0.3-0.2-0.4l-2-1.7c-0.2-0.2-0.5-0.2-0.7,0.1c-0.2,0.2-0.2,0.5,0.1,0.7l1.5,1.3l-1.6,1.4
			C14.5,13.6,14.5,13.9,14.6,14.1z"/>
		<path class="st8" d="M12.8,10.1l-1.9,3.4c-0.1,0.2-0.1,0.5,0.2,0.7c0.1,0,0.2,0.1,0.2,0.1c0.2,0,0.3-0.1,0.4-0.3l1.9-3.4
			c0.1-0.2,0.1-0.5-0.2-0.7C13.3,9.7,13,9.8,12.8,10.1z"/>
	</g>
</g>
</svg>
