<?xml version="1.0" encoding="utf-8"?>
<!-- Generator: Adobe Illustrator 20.1.0, SVG Export Plug-In . SVG Version: 6.00 Build 0)  -->
<svg version="1.1" xmlns="http://www.w3.org/2000/svg" xmlns:xlink="http://www.w3.org/1999/xlink" x="0px" y="0px"
	 viewBox="0 0 36.7 35.6" style="enable-background:new 0 0 36.7 35.6;" xml:space="preserve">
<style type="text/css">
	.st0{opacity:0.5;fill:none;stroke:#D0ECF0;stroke-width:0.5756;stroke-linecap:round;stroke-linejoin:round;stroke-miterlimit:10;}
	.st1{opacity:0.5;}
	.st2{fill:none;stroke:#D0ECF0;stroke-width:0.4688;stroke-linecap:round;stroke-linejoin:round;stroke-miterlimit:10;}
	.st3{fill:#FFFFFF;}
	.st4{fill:none;stroke:#362FC1;stroke-linecap:round;stroke-linejoin:round;stroke-miterlimit:10;}
	.st5{fill:none;stroke:#362FC1;stroke-miterlimit:10;}
	.st6{fill:none;stroke:#362FC1;stroke-linecap:round;stroke-miterlimit:10;}
	.st7{fill:#FFFFFF;stroke:#362FC1;stroke-miterlimit:10;}
	.st8{fill:#362FC1;}
</style>
<g id="Grid">
</g>
<g id="Layer_1">
	<g>
		<path class="st8" d="M11.7,21.1v-8.4c0-0.3-0.2-0.5-0.5-0.5H4.4c-0.3,0-0.5,0.2-0.5,0.5v6.4c-0.4-0.3-0.9-0.5-1.5-0.5
			c-1.4,0-2.5,1.1-2.5,2.5s1.1,2.5,2.5,2.5c1.4,0,2.5-1.1,2.5-2.5v-4.5h5.8v2.5c-0.4-0.3-0.9-0.5-1.5-0.5c-1.4,0-2.5,1.1-2.5,2.5
			s1.1,2.5,2.5,2.5S11.7,22.4,11.7,21.1z M2.5,22.6c-0.8,0-1.5-0.7-1.5-1.5s0.7-1.5,1.5-1.5c0.8,0,1.5,0.7,1.5,1.5
			S3.3,22.6,2.5,22.6z M4.9,15.6v-2.4h5.8v2.4H4.9z M7.8,21.1c0-0.8,0.7-1.5,1.5-1.5c0.8,0,1.5,0.7,1.5,1.5s-0.7,1.5-1.5,1.5
			C8.4,22.6,7.8,21.9,7.8,21.1z"/>
		<path class="st8" d="M36.3,16.2c-0.2-0.1-0.4,0-0.6,0.1l-2,2.2v-1.9c0-0.3-0.2-0.5-0.5-0.5c0.3-0.4,0.5-0.9,0.5-1.5
			c0-1.4-1.1-2.5-2.5-2.5c-0.8,0-1.5,0.4-2,1c-0.5-0.6-1.2-1-2-1c-1.4,0-2.5,1.1-2.5,2.5c0,0.6,0.2,1.1,0.5,1.5
			c-0.3,0-0.5,0.2-0.5,0.5v6.4c0,0.3,0.2,0.5,0.5,0.5h7.9c0.3,0,0.5-0.2,0.5-0.5v-1.9l2,2.2c0.1,0.1,0.2,0.2,0.4,0.2
			c0.1,0,0.1,0,0.2,0c0.2-0.1,0.3-0.3,0.3-0.5v-6.4C36.7,16.4,36.5,16.2,36.3,16.2z M32.8,19.8v2.7h-6.9v-5.4h6.9V19.8
			C32.8,19.8,32.8,19.8,32.8,19.8z M31.4,13.2c0.8,0,1.5,0.7,1.5,1.5s-0.7,1.5-1.5,1.5c-0.8,0-1.5-0.7-1.5-1.5S30.5,13.2,31.4,13.2z
			 M27.4,13.2c0.8,0,1.5,0.7,1.5,1.5s-0.7,1.5-1.5,1.5s-1.5-0.7-1.5-1.5S26.6,13.2,27.4,13.2z M35.7,21.7L34,19.8l1.7-1.9V21.7z"/>
		<path class="st8" d="M18.7,25.1c0-0.1-0.1-0.2-0.2-0.3c-0.1,0-0.2-0.1-0.3-0.1c0,0,0,0,0,0c-0.1,0-0.2,0-0.3,0.1
			c-0.1,0.1-0.2,0.2-0.2,0.3l-5.7,9.8c-0.1,0.2-0.1,0.4,0.1,0.6c0.1,0.2,0.4,0.2,0.6,0.1l5.5-2.1l5.5,2.1c0.1,0,0.1,0,0.2,0
			c0.1,0,0.3-0.1,0.4-0.2c0.1-0.2,0.2-0.4,0.1-0.6L18.7,25.1z M18.4,32.5c-0.1,0-0.1,0-0.2,0s-0.1,0-0.2,0l-4.4,1.6l4.6-7.9l4.6,7.9
			L18.4,32.5z"/>
		<path class="st8" d="M20,19.9c-0.1-0.2-0.4-0.3-0.7-0.2c-0.2,0.1-0.3,0.4-0.2,0.7l8.7,14.9c0.1,0.2,0.3,0.2,0.4,0.2
			c0.1,0,0.2,0,0.3-0.1c0.2-0.1,0.3-0.4,0.2-0.7L20,19.9z"/>
		<path class="st8" d="M16.4,15.8c0.1,0.2,0.3,0.2,0.4,0.2c0.1,0,0.2,0,0.3-0.1c0.2-0.1,0.3-0.4,0.2-0.7l-8.7-15
			C8.5,0.1,8.1,0,7.9,0.2C7.7,0.3,7.6,0.6,7.7,0.9L16.4,15.8z"/>
		<path class="st8" d="M28.5,0.2c-0.2-0.1-0.5-0.1-0.7,0.2L7.7,34.9c-0.1,0.2-0.1,0.5,0.2,0.7c0.1,0,0.2,0.1,0.3,0.1
			c0.2,0,0.3-0.1,0.4-0.2L28.7,0.9C28.8,0.6,28.7,0.3,28.5,0.2z"/>
		<path class="st8" d="M17.8,10.7C17.8,10.7,17.8,10.7,17.8,10.7c0,0.1,0.1,0.1,0.1,0.1c0,0,0.1,0.1,0.1,0.1c0,0,0,0,0,0
			c0,0,0.1,0,0.1,0c0,0,0,0,0,0s0,0,0,0c0.1,0,0.2,0,0.3-0.1c0.1,0,0.1-0.1,0.2-0.2l3.1-5.3c0.1-0.1,0.1-0.3,0-0.4l-0.8-2.9V0.5
			c0-0.3-0.2-0.5-0.5-0.5h-4.5c-0.3,0-0.5,0.2-0.5,0.5v1.6L14.7,5c0,0.1,0,0.3,0,0.4L17.8,10.7z M16.4,1h3.5v1.2c0,0,0,0,0,0.1
			c0,0,0,0,0,0.1l0.8,2.8l-2,3.5V5.2c0-0.3-0.2-0.5-0.5-0.5s-0.5,0.2-0.5,0.5v3.4l-2-3.5l0.8-2.8c0,0,0,0,0-0.1c0,0,0,0,0-0.1V1z"/>
	</g>
</g>
</svg>
