<?xml version="1.0" encoding="utf-8"?>
<!-- Generator: Adobe Illustrator 20.1.0, SVG Export Plug-In . SVG Version: 6.00 Build 0)  -->
<svg version="1.1" xmlns="http://www.w3.org/2000/svg" xmlns:xlink="http://www.w3.org/1999/xlink" x="0px" y="0px"
	 viewBox="0 0 33 36.2" style="enable-background:new 0 0 33 36.2;" xml:space="preserve">
<style type="text/css">
	.st0{opacity:0.5;fill:none;stroke:#D0ECF0;stroke-width:0.5756;stroke-linecap:round;stroke-linejoin:round;stroke-miterlimit:10;}
	.st1{opacity:0.5;}
	.st2{fill:none;stroke:#D0ECF0;stroke-width:0.4688;stroke-linecap:round;stroke-linejoin:round;stroke-miterlimit:10;}
	.st3{fill:#FFFFFF;}
	.st4{fill:none;stroke:#362FC1;stroke-linecap:round;stroke-linejoin:round;stroke-miterlimit:10;}
	.st5{fill:none;stroke:#362FC1;stroke-miterlimit:10;}
	.st6{fill:none;stroke:#362FC1;stroke-linecap:round;stroke-miterlimit:10;}
	.st7{fill:#FFFFFF;stroke:#362FC1;stroke-miterlimit:10;}
	.st8{fill:#362FC1;}
</style>
<g id="Grid">
</g>
<g id="Layer_1">
	<g>
		<path class="st8" d="M24.8,20.6c-0.2-0.1-0.5-0.1-0.7,0.2c-0.1,0.2-0.1,0.5,0.2,0.7c4.7,2.8,7.7,7.9,7.7,13.4v0.4
			c0,0.3,0.2,0.5,0.5,0.5s0.5-0.2,0.5-0.5v-0.4C33,29,29.9,23.5,24.8,20.6z"/>
		<path class="st8" d="M8.7,21.4C9,21.3,9,20.9,8.9,20.7c-0.1-0.2-0.4-0.3-0.7-0.2C3.2,23.5,0,28.9,0,34.8v0.4
			c0,0.3,0.2,0.5,0.5,0.5S1,35.5,1,35.2v-0.4C1,29.3,4,24.2,8.7,21.4z"/>
		<path class="st8" d="M22.1,25.2c-0.2-0.1-0.5-0.1-0.7,0.2c-0.1,0.2-0.1,0.5,0.2,0.7c3.3,1.9,5.3,5.3,5.3,9.1
			c0,0.3,0.2,0.5,0.5,0.5s0.5-0.2,0.5-0.5C27.9,31,25.7,27.2,22.1,25.2z"/>
		<path class="st8" d="M11.6,25.3c-0.1-0.2-0.4-0.3-0.7-0.2C7.3,27.2,5,31,5,35.2c0,0.3,0.2,0.5,0.5,0.5S6,35.4,6,35.2
			c0-3.8,2.1-7.3,5.4-9.1C11.7,25.9,11.7,25.6,11.6,25.3z"/>
		<path class="st8" d="M19.4,29.9c-0.2-0.1-0.5,0-0.7,0.2c-0.1,0.2,0,0.5,0.2,0.7c1.6,0.9,2.6,2.5,2.6,4.4c0,0.3,0.2,0.5,0.5,0.5
			s0.5-0.2,0.5-0.5C22.5,33,21.3,31,19.4,29.9z"/>
		<path class="st8" d="M13.6,29.9c-1.9,1-3.1,3.1-3.1,5.3c0,0.3,0.2,0.5,0.5,0.5s0.5-0.2,0.5-0.5c0-1.8,1-3.5,2.6-4.4
			c0.2-0.1,0.3-0.4,0.2-0.7C14.2,29.9,13.9,29.8,13.6,29.9z"/>
		<path class="st8" d="M32.5,0H16.6c-0.3,0-0.5,0.2-0.5,0.5v6.4h-3.2v-3c0-0.3-0.2-0.5-0.5-0.5s-0.5,0.2-0.5,0.5v3h-3V0.5
			C8.9,0.2,8.7,0,8.4,0S7.9,0.2,7.9,0.5v6.4h-3v-3c0-0.3-0.2-0.5-0.5-0.5S3.9,3.7,3.9,3.9v3H0.5C0.2,6.9,0,7.2,0,7.4v17.7
			c0,0.3,0.2,0.5,0.5,0.5S1,25.4,1,25.1V7.9h15.6c0.3,0,0.5-0.2,0.5-0.5V1H32v24.1c0,0.3,0.2,0.5,0.5,0.5s0.5-0.2,0.5-0.5V0.5
			C33,0.2,32.8,0,32.5,0z"/>
		<path class="st8" d="M18.7,4.9v4.2c0,0.3,0.2,0.5,0.5,0.5s0.5-0.2,0.5-0.5V5.4h9.7v15.8c0,0.3,0.2,0.5,0.5,0.5s0.5-0.2,0.5-0.5
			V4.9c0-0.3-0.2-0.5-0.5-0.5H19.2C18.9,4.4,18.7,4.7,18.7,4.9z"/>
		<path class="st8" d="M25.6,2.8c0-0.5-0.4-1-1-1c-0.5,0-1,0.4-1,1c0,0.5,0.4,1,1,1C25.1,3.8,25.6,3.4,25.6,2.8z M25.1,2.8L25.1,2.8
			L25.1,2.8L25.1,2.8z"/>
		<path class="st8" d="M16.5,34.2c-0.5,0-1,0.4-1,1c0,0.5,0.4,1,1,1c0.5,0,1-0.4,1-1C17.5,34.6,17.1,34.2,16.5,34.2z M17,35.2
			L17,35.2L17,35.2L17,35.2z"/>
		<path class="st8" d="M10.6,16.5c0,0.3,0.2,0.5,0.5,0.5s0.5-0.2,0.5-0.5c0-2.7,2.2-5,5-5s5,2.2,5,5s-2.2,5-5,5
			c-0.3,0-0.5,0.2-0.5,0.5v7.7c0,0.3,0.2,0.5,0.5,0.5s0.5-0.2,0.5-0.5v-7.3c3.1-0.3,5.5-2.8,5.5-6c0-3.3-2.7-6-6-6
			S10.6,13.2,10.6,16.5z"/>
	</g>
</g>
</svg>
