<?xml version="1.0" encoding="utf-8"?>
<!-- Generator: Adobe Illustrator 20.1.0, SVG Export Plug-In . SVG Version: 6.00 Build 0)  -->
<svg version="1.1" xmlns="http://www.w3.org/2000/svg" xmlns:xlink="http://www.w3.org/1999/xlink" x="0px" y="0px"
	 viewBox="0 0 40.8 35.6" style="enable-background:new 0 0 40.8 35.6;" xml:space="preserve">
<style type="text/css">
	.st0{opacity:0.5;fill:none;stroke:#D0ECF0;stroke-width:0.5756;stroke-linecap:round;stroke-linejoin:round;stroke-miterlimit:10;}
	.st1{opacity:0.5;}
	.st2{fill:none;stroke:#D0ECF0;stroke-width:0.4688;stroke-linecap:round;stroke-linejoin:round;stroke-miterlimit:10;}
	.st3{fill:#FFFFFF;}
	.st4{fill:none;stroke:#362FC1;stroke-linecap:round;stroke-linejoin:round;stroke-miterlimit:10;}
	.st5{fill:none;stroke:#362FC1;stroke-miterlimit:10;}
	.st6{fill:none;stroke:#362FC1;stroke-linecap:round;stroke-miterlimit:10;}
	.st7{fill:#FFFFFF;stroke:#362FC1;stroke-miterlimit:10;}
	.st8{fill:#362FC1;}
</style>
<g id="Grid">
</g>
<g id="Layer_1">
	<g>
		<path class="st8" d="M30,14.4c0-1.6-0.4-3.2-1.1-4.6c0,0,0,0,0-0.1c-0.4-0.8-1.3-1.3-2.2-1.3c-0.4,0-0.7,0.1-1,0.2V0.5
			c0-0.3-0.2-0.5-0.5-0.5h-9.6c-0.3,0-0.5,0.2-0.5,0.5v8.3c-0.3-0.1-0.7-0.2-1-0.2c-0.9,0-1.7,0.5-2.2,1.3c0,0,0,0,0,0.1
			c-0.7,1.4-1.1,3-1.1,4.6c0,3.3,1.7,6.4,4.5,8.2v12.5c0,0.3,0.2,0.5,0.5,0.5s0.5-0.2,0.5-0.5V22.3c0-0.2-0.1-0.3-0.2-0.4
			c-2.6-1.6-4.3-4.4-4.3-7.5c0-1.4,0.3-2.8,1-4c0,0,0,0,0-0.1c0.3-0.5,0.8-0.8,1.3-0.8c0.8,0,1.5,0.7,1.5,1.5c0,0.8-0.6,1.4-1.4,1.5
			c-0.2,0-0.4,0.2-0.5,0.4c0,0,0,0,0,0c-0.1,0.4-0.1,0.7-0.1,1.1c0,3.7,3,6.8,6.8,6.8s6.8-3,6.8-6.8c0-0.4,0-0.8-0.1-1.2
			c0,0,0,0,0,0c-0.1-0.2-0.3-0.4-0.5-0.4c-0.7-0.1-1.3-0.7-1.3-1.5c0-0.8,0.7-1.5,1.5-1.5c0.6,0,1.1,0.3,1.3,0.8c0,0,0,0,0,0.1
			c0.7,1.2,1,2.6,1,4c0,3.1-1.6,5.9-4.3,7.5c-0.2,0.1-0.2,0.3-0.2,0.4v12.8c0,0.3,0.2,0.5,0.5,0.5s0.5-0.2,0.5-0.5V22.6
			C28.3,20.9,30,17.8,30,14.4z M24.7,1v8.6c0,0,0,0,0,0h-8.6c0,0,0,0,0,0V1H24.7z M20.4,19.8c-1.9,0-3.4-1.5-3.4-3.4
			s1.5-3.4,3.4-3.4c1.9,0,3.4,1.5,3.4,3.4S22.3,19.8,20.4,19.8z M26.1,13.4c0,0.2,0,0.4,0,0.6c0,1.6-0.7,3.1-1.7,4.1
			c0.2-0.6,0.4-1.2,0.4-1.8c0-2.4-2-4.4-4.4-4.4c-2.4,0-4.4,2-4.4,4.4c0,0.6,0.1,1.2,0.4,1.8c-1.1-1-1.7-2.5-1.7-4.1
			c0-0.2,0-0.4,0-0.6c1.1-0.3,1.9-1.2,1.9-2.4c0-0.1,0-0.3,0-0.4h7.8c0,0.1,0,0.3,0,0.4C24.2,12.2,25,13.2,26.1,13.4z"/>
		<path class="st8" d="M39.6,18.6c-0.1-0.3-0.3-0.5-0.6-0.7v-5c0-0.3-0.2-0.5-0.5-0.5h-6.2c-0.3,0-0.5,0.2-0.5,0.5v6.2
			c0,0.3,0.2,0.5,0.5,0.5H35c0,0,0,0.1,0,0.1c0,1.1,0.8,2.1,1.9,2.4c0,0.2,0,0.4,0,0.6c0,1.8-0.9,3.5-2.2,4.5
			c0.4-0.6,0.6-1.4,0.6-2.2c0-2.4-2-4.4-4.4-4.4c-2.4,0-4.4,2-4.4,4.4c0,1.4,0.7,2.6,1.7,3.4h-1.2c-0.3,0-0.5,0.2-0.5,0.5
			s0.2,0.5,0.5,0.5h4.2c3.7,0,6.8-3,6.8-6.8c0-0.4,0-0.8-0.1-1.2c0-0.2-0.2-0.4-0.5-0.4c-0.8-0.1-1.4-0.7-1.4-1.5
			c0-0.8,0.7-1.5,1.5-1.5c0.6,0,1.1,0.3,1.3,0.8c0.7,1.2,1,2.7,1,4.1c0,3.1-1.6,5.9-4.3,7.5c-0.2,0.1-0.2,0.3-0.2,0.4v4
			c0,0.3,0.2,0.5,0.5,0.5s0.5-0.2,0.5-0.5v-3.8c2.8-1.8,4.5-4.9,4.5-8.2C40.8,21.6,40.4,20,39.6,18.6z M27.4,25.1
			c0-1.9,1.5-3.4,3.4-3.4c1.9,0,3.4,1.5,3.4,3.4s-1.5,3.4-3.4,3.4C29,28.6,27.4,27,27.4,25.1z M35.3,18.7h-2.4v-5.2h5.2v3.9
			c-0.2-0.1-0.4-0.1-0.6-0.1C36.5,17.3,35.7,17.9,35.3,18.7z"/>
		<path class="st8" d="M14.4,25.1c0-2.4-2-4.4-4.4-4.4c-2.4,0-4.4,2-4.4,4.4c0,0.8,0.2,1.5,0.6,2.2c-1.3-1.1-2.2-2.7-2.2-4.5
			c0-0.2,0-0.4,0-0.6c1.1-0.3,1.9-1.3,1.9-2.4c0,0,0-0.1,0-0.1h2.6c0.3,0,0.5-0.2,0.5-0.5V13c0-0.3-0.2-0.5-0.5-0.5H2.2
			c-0.3,0-0.5,0.2-0.5,0.5v5c-0.2,0.2-0.4,0.4-0.6,0.7C0.4,20,0,21.6,0,23.2c0,3.3,1.7,6.4,4.5,8.2v3.8c0,0.3,0.2,0.5,0.5,0.5
			s0.5-0.2,0.5-0.5v-4c0-0.2-0.1-0.3-0.2-0.4C2.6,29.1,1,26.3,1,23.2c0-1.4,0.4-2.8,1-4.1c0.3-0.5,0.8-0.8,1.3-0.8
			c0.8,0,1.5,0.7,1.5,1.5c0,0.8-0.6,1.4-1.4,1.5c-0.2,0-0.4,0.2-0.5,0.4c-0.1,0.4-0.1,0.8-0.1,1.2c0,3.7,3,6.8,6.8,6.8h4.2
			c0.3,0,0.5-0.2,0.5-0.5s-0.2-0.5-0.5-0.5h-1.2C13.7,27.8,14.4,26.5,14.4,25.1z M3.3,17.3c-0.2,0-0.4,0-0.6,0.1v-3.9h5.2v5.2H5.5
			C5.1,17.9,4.3,17.3,3.3,17.3z M6.5,25.1c0-1.9,1.5-3.4,3.4-3.4c1.9,0,3.4,1.5,3.4,3.4s-1.5,3.4-3.4,3.4C8,28.6,6.5,27,6.5,25.1z"
			/>
	</g>
</g>
</svg>
