<?xml version="1.0" encoding="utf-8"?>
<!-- Generator: Adobe Illustrator 20.1.0, SVG Export Plug-In . SVG Version: 6.00 Build 0)  -->
<svg version="1.1" xmlns="http://www.w3.org/2000/svg" xmlns:xlink="http://www.w3.org/1999/xlink" x="0px" y="0px"
	 viewBox="0 0 29.1 35.3" style="enable-background:new 0 0 29.1 35.3;" xml:space="preserve">
<style type="text/css">
	.st0{opacity:0.5;fill:none;stroke:#D0ECF0;stroke-width:0.5756;stroke-linecap:round;stroke-linejoin:round;stroke-miterlimit:10;}
	.st1{opacity:0.5;}
	.st2{fill:none;stroke:#D0ECF0;stroke-width:0.4688;stroke-linecap:round;stroke-linejoin:round;stroke-miterlimit:10;}
	.st3{fill:#FFFFFF;}
	.st4{fill:none;stroke:#362FC1;stroke-linecap:round;stroke-linejoin:round;stroke-miterlimit:10;}
	.st5{fill:none;stroke:#362FC1;stroke-miterlimit:10;}
	.st6{fill:none;stroke:#362FC1;stroke-linecap:round;stroke-miterlimit:10;}
	.st7{fill:#FFFFFF;stroke:#362FC1;stroke-miterlimit:10;}
	.st8{fill:#362FC1;}
</style>
<g id="Grid">
</g>
<g id="Layer_1">
	<g>
		<path class="st8" d="M28.6,7h-2c-0.3,0-0.5,0.2-0.5,0.5S26.3,8,26.6,8h1.5v24.8c0,0.8-0.7,1.5-1.5,1.5c-0.8,0-1.5-0.7-1.5-1.5
			v-1.9c0,0,0,0,0,0V0.5c0-0.1-0.1-0.3-0.1-0.4C24.9,0.1,24.7,0,24.6,0c0,0,0,0,0,0L4.4,0.1c0,0,0,0,0,0c-0.1,0-0.2,0-0.2,0.1
			c0,0,0,0,0,0C4.1,0.2,4,0.3,4,0.4L0.1,7.3C0,7.3,0,7.4,0,7.5v23.6c0,2.3,1.9,4.2,4.2,4.2h22.3c0,0,0,0,0,0c0,0,0,0,0,0
			c1.4,0,2.5-1.1,2.5-2.5V7.5C29.1,7.2,28.9,7,28.6,7z M3.9,7H1.4l2.5-4.5L3.9,7z M1,31.1V8h3.4c0.1,0,0.3-0.1,0.4-0.1
			c0.1-0.1,0.1-0.2,0.1-0.4l0-6.4L24.1,1v6.5c0,0,0,0,0,0v25.3c0,0.6,0.2,1.1,0.5,1.5H4.2C2.4,34.3,1,32.8,1,31.1z"/>
		<path class="st8" d="M4.5,21.7h6.8c0.3,0,0.5-0.2,0.5-0.5s-0.2-0.5-0.5-0.5H4.5c-0.3,0-0.5,0.2-0.5,0.5S4.2,21.7,4.5,21.7z"/>
		<path class="st8" d="M20.6,20.7h-6.8c-0.3,0-0.5,0.2-0.5,0.5s0.2,0.5,0.5,0.5h6.8c0.3,0,0.5-0.2,0.5-0.5S20.9,20.7,20.6,20.7z"/>
		<path class="st8" d="M20.6,6.9h-6.8c-0.3,0-0.5,0.2-0.5,0.5s0.2,0.5,0.5,0.5h6.8c0.3,0,0.5-0.2,0.5-0.5S20.9,6.9,20.6,6.9z"/>
		<path class="st8" d="M20.6,24.2H4.5c-0.3,0-0.5,0.2-0.5,0.5s0.2,0.5,0.5,0.5h16.1c0.3,0,0.5-0.2,0.5-0.5S20.9,24.2,20.6,24.2z"/>
		<path class="st8" d="M20.6,27.7H4.5c-0.3,0-0.5,0.2-0.5,0.5s0.2,0.5,0.5,0.5h16.1c0.3,0,0.5-0.2,0.5-0.5S20.9,27.7,20.6,27.7z"/>
		<path class="st8" d="M13.8,18.2h6.8c0.3,0,0.5-0.2,0.5-0.5v-6.9c0-0.3-0.2-0.5-0.5-0.5h-6.8c-0.3,0-0.5,0.2-0.5,0.5v6.9
			C13.3,18,13.5,18.2,13.8,18.2z M14.3,11.3h5.8v5.9h-5.8V11.3z"/>
		<path class="st8" d="M4.5,11.3h6.8c0.3,0,0.5-0.2,0.5-0.5s-0.2-0.5-0.5-0.5H4.5c-0.3,0-0.5,0.2-0.5,0.5S4.2,11.3,4.5,11.3z"/>
		<path class="st8" d="M4.5,14.7h6.8c0.3,0,0.5-0.2,0.5-0.5s-0.2-0.5-0.5-0.5H4.5C4.2,13.7,4,14,4,14.2S4.2,14.7,4.5,14.7z"/>
		<path class="st8" d="M4.5,18.2h6.8c0.3,0,0.5-0.2,0.5-0.5s-0.2-0.5-0.5-0.5H4.5c-0.3,0-0.5,0.2-0.5,0.5S4.2,18.2,4.5,18.2z"/>
	</g>
</g>
</svg>
