<?xml version="1.0" encoding="utf-8"?>
<!-- Generator: Adobe Illustrator 20.1.0, SVG Export Plug-In . SVG Version: 6.00 Build 0)  -->
<svg version="1.1" xmlns="http://www.w3.org/2000/svg" xmlns:xlink="http://www.w3.org/1999/xlink" x="0px" y="0px"
	 viewBox="0 0 24 35.5" style="enable-background:new 0 0 24 35.5;" xml:space="preserve">
<style type="text/css">
	.st0{opacity:0.5;fill:none;stroke:#D0ECF0;stroke-width:0.5756;stroke-linecap:round;stroke-linejoin:round;stroke-miterlimit:10;}
	.st1{opacity:0.5;}
	.st2{fill:none;stroke:#D0ECF0;stroke-width:0.4688;stroke-linecap:round;stroke-linejoin:round;stroke-miterlimit:10;}
	.st3{fill:#FFFFFF;}
	.st4{fill:none;stroke:#362FC1;stroke-linecap:round;stroke-linejoin:round;stroke-miterlimit:10;}
	.st5{fill:none;stroke:#362FC1;stroke-miterlimit:10;}
	.st6{fill:none;stroke:#362FC1;stroke-linecap:round;stroke-miterlimit:10;}
	.st7{fill:#FFFFFF;stroke:#362FC1;stroke-miterlimit:10;}
	.st8{fill:#362FC1;}
</style>
<g id="Grid">
</g>
<g id="Layer_1">
	<g>
		<path class="st8" d="M12,0C5.4,0,0,5.4,0,12c0,2,0.5,3.9,1.4,5.7l10.2,17.6c0.1,0.2,0.3,0.2,0.4,0.2s0.3-0.1,0.4-0.2l10.2-17.6
			C23.5,16,24,14,24,12C24,5.4,18.6,0,12,0z M21.7,17.2L12,34L2.3,17.2C1.4,15.6,1,13.8,1,12C1,5.9,5.9,1,12,1s11,4.9,11,11
			C23,13.8,22.6,15.6,21.7,17.2z"/>
		<path class="st8" d="M12,7.8c-2.4,0-4.4,2-4.4,4.4s2,4.4,4.4,4.4s4.4-2,4.4-4.4S14.5,7.8,12,7.8z M12,15.7c-1.9,0-3.4-1.5-3.4-3.4
			s1.5-3.4,3.4-3.4s3.4,1.5,3.4,3.4S13.9,15.7,12,15.7z"/>
		<path class="st8" d="M21.5,11.8h-1.1c-0.2-4.2-3.6-7.7-7.9-7.9V2.8c0-0.3-0.2-0.5-0.5-0.5s-0.5,0.2-0.5,0.5v1.1
			c-4.2,0.3-7.6,3.7-7.9,7.9H2.5C2.3,11.8,2,12,2,12.3s0.2,0.5,0.5,0.5h1.1c0.3,4.2,3.6,7.6,7.9,7.8v1.1c0,0.3,0.2,0.5,0.5,0.5
			s0.5-0.2,0.5-0.5v-1.1c4.2-0.3,7.6-3.6,7.9-7.8h1.1c0.3,0,0.5-0.2,0.5-0.5S21.8,11.8,21.5,11.8z M12.5,19.6v-1.1
			c0-0.3-0.2-0.5-0.5-0.5s-0.5,0.2-0.5,0.5v1.1c-3.7-0.2-6.6-3.2-6.9-6.8h1.1c0.3,0,0.5-0.2,0.5-0.5S6,11.8,5.7,11.8H4.7
			c0.2-3.7,3.2-6.7,6.9-6.9V6c0,0.3,0.2,0.5,0.5,0.5s0.5-0.2,0.5-0.5V4.9c3.7,0.2,6.6,3.2,6.9,6.9h-1.1c-0.3,0-0.5,0.2-0.5,0.5
			s0.2,0.5,0.5,0.5h1.1C19.1,16.5,16.2,19.4,12.5,19.6z"/>
	</g>
</g>
</svg>
