<?xml version="1.0" encoding="utf-8"?>
<!-- Generator: Adobe Illustrator 20.1.0, SVG Export Plug-In . SVG Version: 6.00 Build 0)  -->
<svg version="1.1" xmlns="http://www.w3.org/2000/svg" xmlns:xlink="http://www.w3.org/1999/xlink" x="0px" y="0px"
	 viewBox="0 0 37.3 35.7" style="enable-background:new 0 0 37.3 35.7;" xml:space="preserve">
<style type="text/css">
	.st0{opacity:0.5;fill:none;stroke:#D0ECF0;stroke-width:0.5756;stroke-linecap:round;stroke-linejoin:round;stroke-miterlimit:10;}
	.st1{opacity:0.5;}
	.st2{fill:none;stroke:#D0ECF0;stroke-width:0.4688;stroke-linecap:round;stroke-linejoin:round;stroke-miterlimit:10;}
	.st3{fill:#FFFFFF;}
	.st4{fill:none;stroke:#362FC1;stroke-linecap:round;stroke-linejoin:round;stroke-miterlimit:10;}
	.st5{fill:none;stroke:#362FC1;stroke-miterlimit:10;}
	.st6{fill:none;stroke:#362FC1;stroke-linecap:round;stroke-miterlimit:10;}
	.st7{fill:#FFFFFF;stroke:#362FC1;stroke-miterlimit:10;}
	.st8{fill:#362FC1;}
</style>
<g id="Grid">
</g>
<g id="Layer_1">
	<path class="st8" d="M37.3,34.9l-7.9-13.7l7.9-13.5c0.1-0.2,0.1-0.3,0-0.5C37.1,7,37,6.9,36.8,6.9h-8.3c-0.2,0-0.3,0.1-0.4,0.2
		l-3.4,5.9L17.2,0.2C17.1,0.1,16.9,0,16.7,0H0.5C0.2,0,0,0.2,0,0.5v27.7c0,0.3,0.2,0.5,0.5,0.5h15.1L12,34.9c-0.1,0.2-0.1,0.3,0,0.5
		c0.1,0.2,0.3,0.3,0.4,0.3h8.3c0.2,0,0.3-0.1,0.4-0.2l3.5-6.1l3.6,6.1c0.1,0.2,0.3,0.2,0.4,0.2h8.2c0.2,0,0.3-0.1,0.4-0.2
		C37.4,35.3,37.4,35.1,37.3,34.9z M1,27.7V1h15.4l3.4,5.9H7.4c-0.3,0-0.5,0.2-0.5,0.5v6.4H2.5c-0.3,0-0.5,0.2-0.5,0.5
		s0.2,0.5,0.5,0.5h4.5v6.4c0,0.3,0.2,0.5,0.5,0.5h12.2l-3.4,5.9H1z M7.9,14.9h6.3c0.3,0,0.5-0.2,0.5-0.5s-0.2-0.5-0.5-0.5H7.9V7.9
		h4.3l7.4,12.9H7.9V14.9z M28.9,34.7l-3.8-6.6c-0.1-0.2-0.3-0.2-0.4-0.2s-0.3,0.1-0.4,0.2l-3.8,6.6h-7.1l3.6-6.2l4-6.9c0,0,0,0,0,0
		s0,0,0,0l3.1-5.2c0.1-0.2,0.1-0.5-0.2-0.7c-0.2-0.1-0.5-0.1-0.7,0.2l-2.6,4.5L13.4,7.9h7.1l3.7,6.4c0.2,0.3,0.7,0.3,0.9,0l3.7-6.4
		h7.1l-7.6,13l-3,5.1c-0.1,0.2-0.1,0.5,0.2,0.7c0.1,0,0.2,0.1,0.3,0.1c0.2,0,0.3-0.1,0.4-0.2l2.5-4.4L36,34.7H28.9z"/>
</g>
</svg>
