<?xml version="1.0" encoding="utf-8"?>
<!-- Generator: Adobe Illustrator 20.1.0, SVG Export Plug-In . SVG Version: 6.00 Build 0)  -->
<svg version="1.1" xmlns="http://www.w3.org/2000/svg" xmlns:xlink="http://www.w3.org/1999/xlink" x="0px" y="0px"
	 viewBox="0 0 39.3 35.5" style="enable-background:new 0 0 39.3 35.5;" xml:space="preserve">
<style type="text/css">
	.st0{opacity:0.5;fill:none;stroke:#D0ECF0;stroke-width:0.5756;stroke-linecap:round;stroke-linejoin:round;stroke-miterlimit:10;}
	.st1{opacity:0.5;}
	.st2{fill:none;stroke:#D0ECF0;stroke-width:0.4688;stroke-linecap:round;stroke-linejoin:round;stroke-miterlimit:10;}
	.st3{fill:#FFFFFF;}
	.st4{fill:none;stroke:#362FC1;stroke-linecap:round;stroke-linejoin:round;stroke-miterlimit:10;}
	.st5{fill:none;stroke:#362FC1;stroke-miterlimit:10;}
	.st6{fill:none;stroke:#362FC1;stroke-linecap:round;stroke-miterlimit:10;}
	.st7{fill:#FFFFFF;stroke:#362FC1;stroke-miterlimit:10;}
	.st8{fill:#362FC1;}
</style>
<g id="Grid">
</g>
<g id="Layer_1">
	<g>
		<path class="st8" d="M39.3,17.8c0-3-2.4-5.7-6.6-7.5c0.5-4.5-0.6-8-3.2-9.5c-2.6-1.5-6.1-0.7-9.8,1.9c-0.2-0.1-0.4-0.3-0.6-0.4
			c-3.5-2.3-6.8-2.9-9.2-1.5c-2.6,1.5-3.7,5-3.2,9.5c-4,1.8-6.6,4.5-6.6,7.5c0,3,2.4,5.7,6.6,7.6c-0.4,4.4,0.6,8,3.2,9.4
			c0.9,0.5,1.9,0.8,2.9,0.8c2.1,0,4.5-0.9,6.9-2.7c0.2,0.2,0.4,0.3,0.6,0.5c2.2,1.5,4.4,2.2,6.3,2.2c1.1,0,2.1-0.2,2.9-0.7
			c2.6-1.5,3.7-5,3.2-9.5C36.7,23.4,39.3,20.7,39.3,17.8z M28.9,1.6c2.2,1.2,3.1,4.3,2.8,8.2c-1.2-0.5-2.5-0.9-3.8-1.2
			c-0.3-0.1-0.5,0.1-0.6,0.4c-0.1,0.3,0.1,0.5,0.4,0.6c1.4,0.3,2.8,0.8,4,1.3c-0.2,1.7-0.7,3.6-1.4,5.6c-0.6-1.2-1.2-2.5-1.9-3.7
			c-0.9-1.6-1.9-3.1-3-4.4c0,0,0,0,0,0c-1.5-1.9-3.1-3.6-4.8-4.9C23.7,1.1,26.8,0.4,28.9,1.6z M19.6,26.8c-1.7,0-3.4-0.1-5-0.3
			c-1-1.3-1.9-2.7-2.8-4.2c-0.9-1.5-1.6-3-2.2-4.5c0.6-1.5,1.3-3,2.2-4.5c0.9-1.5,1.8-2.9,2.8-4.2c1.6-0.2,3.3-0.3,5-0.3
			c1.7,0,3.4,0.1,5,0.3c1,1.3,1.9,2.7,2.8,4.2c0.9,1.5,1.6,3,2.2,4.5c-0.6,1.5-1.4,3-2.2,4.5c-0.9,1.5-1.8,2.9-2.8,4.2
			C23,26.7,21.4,26.8,19.6,26.8z M10.3,1.6c2-1.2,4.9-0.7,8.1,1.5c0.1,0.1,0.2,0.2,0.3,0.2c-1,0.8-1.9,1.7-2.9,2.7
			c-0.2,0.2-0.2,0.5,0,0.7c0.2,0.2,0.5,0.2,0.7,0c1-1.1,2-2,3-2.8c1.4,1.1,2.8,2.5,4.1,4c-1.4-0.1-2.7-0.2-4.1-0.2
			c-4.5,0-8.7,0.8-12.1,2.1C7.2,5.9,8.2,2.9,10.3,1.6z M1,17.8c0-2.6,2.2-4.9,5.7-6.5c0.2,1.2,0.5,2.6,0.9,3.9
			c0.1,0.3,0.4,0.4,0.6,0.3c0.3-0.1,0.4-0.4,0.3-0.6c-0.4-1.4-0.7-2.8-0.9-4.1c1.6-0.7,3.5-1.2,5.5-1.6c-0.8,1.1-1.6,2.2-2.3,3.5
			c-0.9,1.6-1.7,3.2-2.3,4.8c0,0,0,0.1-0.1,0.1c-0.9,2.3-1.5,4.5-1.8,6.6C3.2,22.6,1,20.2,1,17.8z M10.3,33.9
			c-2.2-1.3-3.1-4.3-2.8-8.2c1.2,0.5,2.5,0.9,4,1.2c0,0,0.1,0,0.1,0c0.2,0,0.4-0.2,0.5-0.4c0.1-0.3-0.1-0.5-0.4-0.6
			c-1.5-0.3-2.9-0.8-4.1-1.3c0.2-1.7,0.7-3.6,1.4-5.6c0.5,1.2,1.2,2.5,1.9,3.7c0.9,1.6,1.9,3.1,3,4.4c0,0,0,0,0,0
			c1.5,1.9,3.1,3.6,4.8,4.9C15.5,34.4,12.4,35.1,10.3,33.9z M28.9,33.9c-2,1.2-4.9,0.7-8.1-1.5c-0.1-0.1-0.2-0.2-0.3-0.3
			c0.9-0.8,1.9-1.6,2.8-2.6c0.2-0.2,0.2-0.5,0-0.7c-0.2-0.2-0.5-0.2-0.7,0c-1,1-2,1.9-3,2.7c-1.4-1.1-2.8-2.5-4.1-4
			c1.4,0.1,2.7,0.2,4.1,0.2c1.8,0,3.6-0.1,5.3-0.4c0,0,0,0,0,0c0,0,0.1,0,0.1,0c2.4-0.4,4.7-1,6.6-1.7C32,29.6,31.1,32.7,28.9,33.9z
			 M32.5,24.3c-0.2-1.3-0.5-2.6-0.9-4C31.6,20,31.3,19.9,31,20c-0.3,0.1-0.4,0.4-0.3,0.6c0.4,1.4,0.7,2.8,0.9,4.1
			c-1.6,0.7-3.5,1.2-5.5,1.6c0.8-1.1,1.6-2.2,2.3-3.5c0.9-1.6,1.7-3.2,2.4-4.8c0.9-2.3,1.6-4.6,1.9-6.7c3.6,1.7,5.7,4,5.7,6.5
			C38.3,20.3,36.1,22.6,32.5,24.3z"/>
		<path class="st8" d="M19.6,13.3c-2.4,0-4.4,2-4.4,4.4c0,2.4,2,4.4,4.4,4.4s4.4-2,4.4-4.4C24.1,15.3,22.1,13.3,19.6,13.3z
			 M19.6,21.2c-1.9,0-3.4-1.5-3.4-3.4s1.5-3.4,3.4-3.4s3.4,1.5,3.4,3.4S21.5,21.2,19.6,21.2z"/>
	</g>
</g>
</svg>
