<?xml version="1.0" encoding="utf-8"?>
<!-- Generator: Adobe Illustrator 20.1.0, SVG Export Plug-In . SVG Version: 6.00 Build 0)  -->
<svg version="1.1" xmlns="http://www.w3.org/2000/svg" xmlns:xlink="http://www.w3.org/1999/xlink" x="0px" y="0px"
	 viewBox="0 0 37.2 35.3" style="enable-background:new 0 0 37.2 35.3;" xml:space="preserve">
<style type="text/css">
	.st0{opacity:0.5;fill:none;stroke:#D0ECF0;stroke-width:0.5756;stroke-linecap:round;stroke-linejoin:round;stroke-miterlimit:10;}
	.st1{opacity:0.5;}
	.st2{fill:none;stroke:#D0ECF0;stroke-width:0.4688;stroke-linecap:round;stroke-linejoin:round;stroke-miterlimit:10;}
	.st3{fill:#FFFFFF;}
	.st4{fill:none;stroke:#362FC1;stroke-linecap:round;stroke-linejoin:round;stroke-miterlimit:10;}
	.st5{fill:none;stroke:#362FC1;stroke-miterlimit:10;}
	.st6{fill:none;stroke:#362FC1;stroke-linecap:round;stroke-miterlimit:10;}
	.st7{fill:#FFFFFF;stroke:#362FC1;stroke-miterlimit:10;}
	.st8{fill:#362FC1;}
</style>
<g id="Grid">
</g>
<g id="Layer_1">
	<g>
		<path class="st8" d="M37.1,7.2C37,7,36.9,6.9,36.7,6.9H23.8c-1.5-4-5.4-6.9-10-6.9C7.9,0,3.1,4.8,3.1,10.7c0,2.8,1.1,5.3,2.8,7.2
			L0.1,28c-0.1,0.2-0.1,0.3,0,0.5s0.3,0.3,0.4,0.3h14.1c1.6,3.8,5.4,6.6,9.9,6.6c5.9,0,10.7-4.8,10.7-10.7c0-3-1.3-5.8-3.3-7.7
			l5.3-9.2C37.2,7.5,37.2,7.3,37.1,7.2z M1.4,27.7l5.3-9.1c1.7,1.5,3.8,2.5,6.2,2.7c0,0,0,0,0,0c0.3,0,0.5-0.2,0.5-0.5
			c0-0.3-0.2-0.5-0.5-0.5c-5-0.4-8.8-4.7-8.8-9.7C4.1,5.4,8.4,1,13.8,1c5.3,0,9.7,4.4,9.7,9.7c0,1.2-0.2,2.3-0.6,3.3
			c-5.3,0.7-9.2,5.2-9.2,10.6c0,1.1,0.2,2.2,0.5,3.2H1.4z M22.4,15.1c-1.3,2.6-3.7,4.5-6.7,5.1C17.1,17.6,19.5,15.7,22.4,15.1z
			 M31,16.2c-1.6-1.3-3.5-2.1-5.7-2.3c-0.3,0-0.5,0.2-0.5,0.5c0,0.3,0.2,0.5,0.5,0.5c5,0.4,8.9,4.7,8.9,9.7c0,5.4-4.4,9.7-9.7,9.7
			c-5.3,0-9.7-4.4-9.7-9.7c0-1.2,0.2-2.3,0.6-3.3c5.3-0.7,9.2-5.2,9.2-10.6c0-1-0.1-1.9-0.4-2.8h11.7L31,16.2z"/>
		<path class="st8" d="M17.8,12c0-0.3-0.2-0.5-0.5-0.5s-0.5,0.2-0.5,0.5c0,1.7-1.3,3-3,3s-3-1.3-3-3c0-0.3-0.2-0.5-0.5-0.5
			S9.8,11.7,9.8,12c0,2.2,1.8,4,4,4S17.8,14.2,17.8,12z"/>
		<circle class="st8" cx="10.3" cy="9" r="0.9"/>
		<circle class="st8" cx="17.3" cy="9" r="0.9"/>
		<path class="st8" d="M21.4,25.8c0-0.3-0.2-0.5-0.5-0.5s-0.5,0.2-0.5,0.5c0,2.2,1.8,4,4,4c2.2,0,4-1.8,4-4c0-0.3-0.2-0.5-0.5-0.5
			s-0.5,0.2-0.5,0.5c0,1.7-1.3,3-3,3S21.4,27.5,21.4,25.8z"/>
		<circle class="st8" cx="20.9" cy="22.9" r="0.9"/>
		<circle class="st8" cx="27.9" cy="22.9" r="0.9"/>
	</g>
</g>
</svg>
