<?xml version="1.0" encoding="UTF-8" standalone="no"?>
<svg width="200px" height="52px" viewBox="0 0 200 52" version="1.1" xmlns="http://www.w3.org/2000/svg" xmlns:xlink="http://www.w3.org/1999/xlink">
    <!-- Generator: Sketch 39.1 (31720) - http://www.bohemiancoding.com/sketch -->
    <title>LOGO</title>
    <desc>Created with Sketch.</desc>
    <defs>
        <polygon id="path-1" points="9.83179487 16.7775451 9.83179487 0.983819608 0.419282051 0.983819608 0.419282051 16.7775451 9.83179487 16.7775451"></polygon>
    </defs>
    <g id="Page-1" stroke="none" stroke-width="1" fill="none" fill-rule="evenodd">
        <g id="Landing-Sessions-Open" transform="translate(-60.000000, -79.000000)">
            <g id="LOGO" transform="translate(60.000000, 79.000000)">
                <path d="M62.7753846,16.8259765 L64.534359,16.8259765 L64.534359,11.8400941 C64.9230769,11.4903686 65.3825641,11.3200941 65.7148718,11.3200941 C66.2153846,11.3200941 66.3394872,11.5199373 66.3394872,12.3723294 L66.3394872,16.8259765 L68.0451282,16.8259765 L68.0451282,11.9073882 C68.4328205,11.559702 68.905641,11.3323294 69.2420513,11.3323294 C69.7107692,11.3323294 69.8071795,11.4903686 69.8071795,12.3091137 L69.8071795,16.8259765 L71.5548718,16.8259765 L71.5548718,11.9614275 C71.5548718,11.0264471 71.4307692,10.623702 71.0441026,10.2892706 C70.7333333,10.0241725 70.2215385,9.86511373 69.6830769,9.86511373 C68.9292308,9.86511373 68.3651282,10.1169569 67.7364103,10.7582902 C67.6533333,10.6400157 67.56,10.5186824 67.4635897,10.4238588 C67.1015385,10.0486431 66.6338462,9.86511373 66.0635897,9.86511373 C65.4338462,9.86511373 64.8553846,10.103702 64.3866667,10.5584471 C64.3179487,10.2117804 64.2666667,10.0486431 64.1466667,9.86511373 L62.5179487,10.3035451 C62.7066667,10.6400157 62.7753846,11.0651922 62.7753846,12.0531922 L62.7753846,16.8259765 Z" id="Fill-1" fill="#00FCDD"></path>
                <path d="M74.7502564,11.8674196 C74.8989744,11.4371451 75.2466667,11.1720471 75.6784615,11.1720471 C76.0025641,11.1720471 76.2825641,11.3066353 76.4569231,11.5319686 C76.6969231,11.8398902 76.8179487,12.4424784 76.8179487,13.3642039 C76.8179487,14.9823216 76.4835897,15.6756549 75.7030769,15.6756549 C75.3594872,15.6756549 74.9512821,15.4890667 74.7912821,15.1158902 C74.6425641,14.7692235 74.5625641,14.1768314 74.5625641,13.3917333 C74.5625641,12.7085961 74.6282051,12.2293804 74.7502564,11.8674196 M75.6517949,16.9725961 C76.7123077,16.9725961 77.3984615,16.6096157 77.9215385,16.021302 C78.5133333,15.355498 78.7841026,14.5530667 78.7841026,13.3764392 C78.7841026,12.2681255 78.5389744,11.5197333 77.9892308,10.8773804 C77.3984615,10.1840471 76.6333333,9.84961569 75.6517949,9.84961569 C73.7953846,9.84961569 72.5615385,11.2791059 72.5615385,13.431498 C72.5615385,15.5828706 73.7830769,16.9725961 75.6517949,16.9725961" id="Fill-3" fill="#00FCDD"></path>
                <polygon id="Fill-5" fill="#00FCDD" points="84.6971282 15.5827686 81.5371282 15.5827686 84.5791795 11.2127294 84.5791795 9.98410196 79.4704615 9.98410196 79.4704615 11.2412784 82.4366154 11.2412784 79.2017436 15.7163373 79.2017436 16.8256706 84.266359 16.8256706"></polygon>
                <polygon id="Fill-7" fill="#00FCDD" points="85.6116923 16.8259765 87.4116923 16.8259765 87.4116923 9.8222902 85.6116923 10.103702"></polygon>
                <path d="M86.509641,9.2068549 C87.1311795,9.2068549 87.6234872,8.71540392 87.6234872,8.09854118 C87.6234872,7.48575686 87.1424615,6.99022745 86.5393846,6.99022745 C85.9229744,6.99022745 85.4101538,7.48575686 85.4101538,8.09854118 C85.4101538,8.71540392 85.9075897,9.2068549 86.509641,9.2068549" id="Fill-9" fill="#00FCDD"></path>
                <path d="M88.8477949,14.5143216 C88.8477949,15.4890667 88.8775385,15.7042039 89.0118974,16.0508706 C89.2262564,16.6259294 89.8447179,16.9848314 90.6129231,16.9848314 C91.0026667,16.9848314 91.3801026,16.9185569 91.6867692,16.8002824 L91.3801026,15.7296941 C91.2806154,15.7551843 91.2436923,15.7551843 91.1770256,15.7551843 C91.0293333,15.7551843 90.8836923,15.6889098 90.8139487,15.5685961 C90.7062564,15.3830275 90.6908718,15.2239686 90.6908718,14.0463216 L90.6908718,8.71479216 C90.6908718,7.75024314 90.6631795,7.30875294 90.5985641,6.93557647 L88.7565128,7.35055686 C88.8252308,7.9664 88.8477949,8.5129098 88.8477949,9.40812549 L88.8477949,14.5143216 Z" id="Fill-11" fill="#00FCDD"></path>
                <path d="M92.5877949,14.5143216 C92.5877949,15.4890667 92.610359,15.7042039 92.7488205,16.0508706 C92.9621538,16.6259294 93.581641,16.9848314 94.3488205,16.9848314 C94.7375385,16.9848314 95.1170256,16.9185569 95.4236923,16.8002824 L95.1170256,15.7296941 C95.021641,15.7551843 94.9806154,15.7551843 94.9129231,15.7551843 C94.7631795,15.7551843 94.6154872,15.6889098 94.5539487,15.5685961 C94.4431795,15.3830275 94.4267692,15.2239686 94.4267692,14.0463216 L94.4267692,8.71479216 C94.4267692,7.75024314 94.4052308,7.30875294 94.3313846,6.93557647 L92.4924103,7.35055686 C92.5601026,7.9664 92.5877949,8.5129098 92.5877949,9.40812549 L92.5877949,14.5143216 Z" id="Fill-13" fill="#00FCDD"></path>
                <path d="M99.6414359,15.3015608 C99.3768205,15.5952078 99.038359,15.7685412 98.7029744,15.7685412 C98.2455385,15.7685412 97.9070769,15.4086196 97.9070769,14.8763843 C97.9070769,14.0566196 98.3429744,13.8323059 99.5891282,13.8323059 L99.6711795,13.8323059 L99.6414359,15.3015608 Z M102.082462,16.0764627 C101.555282,15.6890118 101.433231,15.4086196 101.433231,14.6734824 L101.433231,14.5531686 L101.475282,12.2549725 C101.484513,11.5198353 101.442462,11.3057176 101.353231,11.0263451 C101.082462,10.2636784 100.290667,9.83850196 99.1327179,9.83850196 C98.4978462,9.83850196 97.9234872,9.95779608 97.2527179,10.2371686 C96.7675897,10.4370118 96.4998974,10.5716 96.1327179,10.7979529 L96.9019487,12.0806196 C97.638359,11.5861098 98.3173333,11.3057176 98.8865641,11.3057176 C99.5491282,11.3057176 99.6978462,11.5606196 99.6978462,12.3232863 L99.6978462,12.6036784 C99.5491282,12.5873647 99.4260513,12.5873647 99.2927179,12.5873647 C97.1050256,12.5873647 95.9860513,13.3357569 95.9860513,14.9426588 C95.9860513,16.3038353 96.8198974,17.0797569 98.3522051,17.0797569 C98.9173333,17.0797569 99.4024615,16.9451686 99.7378462,16.7035216 C99.8732308,16.6097176 100.022974,16.4802275 100.154256,16.3446196 C100.329641,16.6902667 100.705026,16.9992078 101.125538,17.1735608 L102.082462,16.0764627 Z" id="Fill-15" fill="#00FCDD"></path>
                <polygon id="Fill-17" fill="#00FCDD" points="73.181641 23.7268863 73.6462564 20.4661804 62.7036923 20.4661804 62.7036923 40.4617098 66.7672821 40.4617098 66.7672821 31.6033569 71.9047179 31.6033569 71.9047179 28.3151216 66.7672821 28.3151216 66.7672821 23.7268863"></polygon>
                <path d="M82.2125128,31.488549 L77.7140513,31.488549 L77.7140513,31.4304314 C77.7140513,29.3820392 78.5561026,28.2278431 80.0361026,28.2278431 C80.8196923,28.2278431 81.3714872,28.5163922 81.7489231,29.0934902 C82.0966154,29.6420392 82.2125128,30.2191373 82.2125128,31.3162353 L82.2125128,31.488549 Z M79.977641,25.4004706 C78.0043077,25.4004706 76.5243077,26.0356863 75.3048205,27.3907451 C73.9981538,28.8345098 73.4473846,30.5933333 73.4473846,33.2483922 C73.4473846,37.8937255 76.2043077,40.895451 80.4709744,40.895451 C82.5602051,40.895451 84.3612308,40.2306667 86.0730256,38.8460392 L84.5632821,36.5376471 C83.3735385,37.5185098 82.1253333,38.0089412 80.7909744,38.0089412 C78.7878974,38.0089412 77.6555897,36.7109804 77.6555897,34.4311373 L77.6555897,34.3159216 L86.246359,34.3159216 L86.246359,33.4217255 C86.246359,30.3343529 85.6371282,28.3430588 84.2730256,26.9584314 C83.3161026,25.9775686 81.6904615,25.4004706 79.977641,25.4004706 L79.977641,25.4004706 Z" id="Fill-19" fill="#00FCDD"></path>
                <path d="M96.0297436,31.6037647 L94.2307692,31.1418824 C92.865641,30.7962353 92.3723077,30.3924706 92.3723077,29.6420392 C92.3723077,28.7763922 93.1271795,28.1992941 94.2594872,28.1992941 C95.3620513,28.1992941 96.4358974,28.5163922 97.9158974,29.2668235 L99.1938462,26.6698824 C97.8297436,26.0061176 96.2615385,25.2852549 93.8820513,25.2852549 C90.4276923,25.2852549 88.1353846,27.2184314 88.1353846,30.102902 C88.1353846,31.0552157 88.454359,32.1227451 88.9774359,32.7579608 C89.4994872,33.3931765 90.7179487,34.0854902 91.705641,34.2578039 L93.4461538,34.5759216 C95.0133333,34.8644706 95.7394872,35.383451 95.7394872,36.3938824 C95.7394872,37.3461961 94.8687179,38.0670588 93.7661538,38.0670588 C92.0820513,38.0670588 90.0215385,37.1157647 88.8317949,36.3938824 L87.4389744,39.2212549 C89.6153846,40.346902 91.6184615,40.924 93.4461538,40.924 C97.2482051,40.924 99.8030769,38.8460392 99.8030769,35.7872157 C99.8030769,34.8063529 99.5425641,33.9702745 98.9897436,33.2779608 C98.4676923,32.6141961 97.8584615,32.0656471 96.0297436,31.6037647" id="Fill-21" fill="#00FCDD"></path>
                <path d="M108.134154,38.1247686 C106.799795,38.1247686 106.451077,37.6343373 106.451077,35.7582588 L106.451077,28.2284549 L108.947487,28.2284549 L109.934154,25.6600627 L106.451077,25.6600627 C106.451077,24.1592 106.538256,22.5726902 106.682872,21.2166118 L102.736205,22.1974745 C102.590564,23.2935529 102.590564,24.2754353 102.590564,25.7181804 L101.110564,25.7181804 L101.110564,28.2284549 L102.590564,28.2284549 L102.590564,36.3649255 C102.590564,37.7210039 102.620308,38.0095529 102.852103,38.643749 C103.286974,39.9427294 104.883897,40.8083765 106.857231,40.8083765 C107.873641,40.8083765 108.889026,40.6054745 110.021333,40.1446118 L109.528,37.8362196 C108.830564,38.038102 108.482872,38.1247686 108.134154,38.1247686" id="Fill-23" fill="#00FCDD"></path>
                <path d="M113.126974,19.2257255 C111.792615,19.2257255 110.689026,20.2932549 110.689026,21.6207843 C110.689026,22.9472941 111.762872,24.0158431 113.069538,24.0158431 C114.403897,24.0158431 115.477744,22.9472941 115.477744,21.6207843 C115.477744,20.2932549 114.433641,19.2257255 113.126974,19.2257255" id="Fill-25" fill="#00FCDD"></path>
                <polygon id="Fill-27" fill="#00FCDD" points="111.124615 40.4620157 115.013846 40.4620157 115.013846 25.342251 111.124615 25.9489176"></polygon>
                <path d="M124.621538,31.8927216 C124.156923,33.3640157 123.837949,34.7771922 123.722051,35.6438588 C123.517949,34.6915451 123.083077,33.0754667 122.764103,32.0946039 L120.61641,25.4294275 L116.64,25.9198588 L122.037949,40.4625255 L125.260513,40.4625255 L130.688205,25.6894275 L126.62359,25.6894275 L124.621538,31.8927216 Z" id="Fill-29" fill="#00FCDD"></path>
                <path d="M139.277231,37.1729647 C138.696718,37.8071608 137.97159,38.1833961 137.245436,38.1833961 C136.258769,38.1833961 135.532615,37.4033961 135.532615,36.2492 C135.532615,34.4893569 136.461846,33.9989255 139.160308,33.9989255 L139.335692,33.9989255 L139.277231,37.1729647 Z M143.137744,35.8158667 L143.137744,35.5568863 L143.224923,30.5934353 C143.224923,29.0069255 143.166462,28.5450431 142.963385,27.9393961 C142.382872,26.2947686 140.670051,25.3720235 138.173641,25.3720235 C136.810564,25.3720235 135.562359,25.6310039 134.111077,26.236651 C133.065949,26.6414353 132.659795,26.8433176 131.701846,27.4489647 L133.356205,30.2192392 C134.952103,29.1517098 136.403385,28.5450431 137.65159,28.5450431 C139.074154,28.5450431 139.393128,29.0935922 139.393128,30.7382196 L139.393128,31.3448863 C138.986974,31.3153176 138.812615,31.3153176 138.522359,31.3153176 C133.791077,31.3153176 131.382872,32.9313961 131.382872,36.3929647 C131.382872,39.3365725 133.181846,41.009749 136.490564,41.009749 C137.710051,41.009749 138.755179,40.7212 139.480308,40.2022196 C139.770564,40.0003373 139.829026,39.9422196 140.379795,39.4232392 C140.757231,40.1736706 141.570564,40.8374353 142.470051,41.212651 L144.530564,38.8461412 C143.398256,38.0090431 143.137744,37.4033961 143.137744,35.8158667 L143.137744,35.8158667 Z" id="Fill-31" fill="#00FCDD"></path>
                <path d="M151.758872,38.1536235 C151.439897,38.1536235 151.120923,38.0088392 150.975282,37.7498588 C150.743487,37.3460941 150.714769,36.9994275 150.714769,34.4606039 L150.714769,22.9482118 C150.714769,20.870251 150.656308,19.9179373 150.510667,19.1104078 L146.535282,20.0046039 C146.679897,21.3321333 146.738359,22.5148784 146.738359,24.4480549 L146.738359,35.4700157 C146.738359,37.5765255 146.795795,38.0384078 147.086051,38.7888392 C147.550667,40.0286824 148.886051,40.8086824 150.54041,40.8086824 C151.382462,40.8086824 152.194769,40.663898 152.862462,40.4049176 L152.194769,38.0965255 C151.991692,38.1536235 151.904513,38.1536235 151.758872,38.1536235" id="Fill-33" fill="#00FCDD"></path>
                <g id="Group-37" fill="#00FCDD">
                    <path d="M50.5035897,29.1965725 L50.4194872,29.2322588 C45.7425641,31.1827686 43.3876923,36.6091216 45.1702564,41.3299059 L45.2020513,41.4145333 C43.9907692,42.8960235 42.6153846,44.2266118 41.1035897,45.3787686 L41.0123077,45.3410431 C39.8882051,44.8842588 38.6974359,44.6528078 37.4728205,44.6528078 C33.6830769,44.6528078 30.2379487,46.8327294 28.6974359,50.2066118 L28.6574359,50.2932784 C26.7620513,50.4870039 24.8369231,50.4574353 22.9394872,50.2076314 L22.9046154,50.1240235 C21.4379487,46.6492 17.8666667,44.314298 14.0174359,44.314298 C12.8882051,44.314298 11.7846154,44.5131216 10.7323077,44.904651 L10.6492308,44.9362588 C9.15794872,43.7310824 7.81846154,42.3637882 6.66051282,40.8619059 L6.6974359,40.7721804 C8.61538462,36.1054353 6.42051282,30.6128078 1.80307692,28.5266902 L1.71487179,28.4879451 C1.52102564,26.6047294 1.55179487,24.6960235 1.80410256,22.8026118 L1.88820513,22.7669255 C6.56410256,20.8164157 8.92,15.3910824 7.13846154,10.6713176 L7.10564103,10.5866902 C8.31794872,9.10214118 9.69333333,7.77155294 11.2041026,6.62041569 L11.2933333,6.65712157 C12.4184615,7.11390588 13.6102564,7.34637647 14.8358974,7.34637647 C18.6266667,7.34637647 22.0707692,5.1664549 23.6102564,1.79359216 L23.6512821,1.70488627 C25.5487179,1.51116078 27.4717949,1.54174902 29.3692308,1.79359216 L29.4041026,1.8772 C30.8707692,5.35100392 34.4410256,7.68488627 38.2892308,7.68488627 C39.4184615,7.68488627 40.5230769,7.48708235 41.5692308,7.09555294 L41.6584615,7.06292549 C43.1497436,8.26708235 44.4892308,9.63437647 45.6482051,11.1362588 L45.6102564,11.2280235 C43.6912821,15.8947686 45.8861538,21.3873961 50.5035897,23.4714745 L50.5917949,23.5122588 C50.7866667,25.3954745 50.7579487,27.3041804 50.5035897,29.1965725 L50.5035897,29.1965725 Z M52.0666667,22.4437098 L51.1610256,22.0338275 C47.3117949,20.2953961 45.4810256,15.7163373 47.0820513,11.8255137 L47.4584615,10.9078667 L47.1928205,10.5510039 C45.8030769,8.67900392 44.1538462,6.99461176 42.2933333,5.54574902 L41.9435897,5.27351373 L41.014359,5.61610196 C40.1435897,5.94033725 39.2276923,6.10551373 38.2892308,6.10551373 C35.0738462,6.10551373 32.0912821,4.16112157 30.8697436,1.2664549 L30.4892308,0.361043137 L30.0471795,0.29374902 C27.7230769,-0.0580156863 25.3415385,-0.0937019608 23.0194872,0.185670588 L22.5764103,0.238690196 L22.1641026,1.14002353 C20.8810256,3.95006275 18.0041026,5.76598431 14.8358974,5.76598431 C13.8174359,5.76598431 12.8276923,5.57429804 11.894359,5.19500392 L10.9733333,4.82080784 L10.614359,5.08386667 C8.73230769,6.46543529 7.03692308,8.10496471 5.57846154,9.95759216 L5.30358974,10.306298 L5.65025641,11.2270039 C7.13538462,15.160651 5.17230769,19.684651 1.27282051,21.3109255 L0.362051282,21.6912392 L0.295384615,22.1296706 C-0.0574358974,24.4543765 -0.0943589744,26.8045725 0.186666667,29.1160235 L0.241025641,29.5575137 L1.14666667,29.9653569 C4.99589744,31.7048078 6.82564103,36.2838667 5.22564103,40.1746902 L4.84923077,41.090298 L5.11487179,41.4471608 C6.50461538,43.3201804 8.15487179,45.0055922 10.0184615,46.4564941 L10.3712821,46.7317882 L11.2933333,46.3830824 C12.1630769,46.0588471 13.08,45.8936706 14.0174359,45.8936706 C17.2338462,45.8936706 20.2174359,47.8390824 21.4389744,50.7327294 L21.8194872,51.6412 L22.2615385,51.7074745 C23.5548718,51.9012 24.8707692,52.000102 26.1723077,52.000102 C27.2112821,52.000102 28.2594872,51.9368863 29.2892308,51.8135137 L29.7323077,51.7594745 L30.1446154,50.8591608 C31.4276923,48.048102 34.3046154,46.2332 37.4728205,46.2332 C38.4902564,46.2332 39.4789744,46.4248863 40.4092308,46.8031608 L41.3323077,47.1793961 L41.6923077,46.9153176 C43.5774359,45.5327294 45.2728205,43.8932 46.7302564,42.0426118 L47.0061538,41.6928863 L46.6574359,40.7732 C45.1723077,36.8395529 47.1353846,32.3145333 51.0348718,30.6882588 L51.945641,30.3079451 L52.0123077,29.8695137 C52.3661538,27.5458275 52.4030769,25.1956314 52.12,22.8831608 L52.0666667,22.4437098 Z" id="Fill-35"></path>
                </g>
                <path d="M26.1540513,43.0290824 C16.7089231,43.0290824 9.02482051,35.3891608 9.02482051,25.9985725 C9.02482051,16.6090039 16.7089231,8.97010196 26.1540513,8.97010196 C30.7304615,8.97010196 35.0309744,10.7421804 38.2668718,13.9580235 C41.5017436,17.1748863 43.2832821,21.4511216 43.2832821,25.9995922 C43.2832821,35.3891608 35.5991795,43.0290824 26.1540513,43.0290824 M26.1540513,7.39072941 C15.8330256,7.46108235 7.43507692,15.7382588 7.43507692,25.9985725 C7.43507692,36.2599059 15.832,44.6084549 26.1540513,44.6084549 C36.4750769,44.6084549 44.872,36.2609255 44.872,25.9995922 C44.8730256,21.0290039 42.9581538,16.3245333 39.3909744,12.8415529 C35.7796923,9.31676863 30.8966154,7.35810196 26.1540513,7.39072941" id="Fill-38" fill="#00FCDD"></path>
                <path d="M36.2042051,30.4626196 L33.4749744,25.9987765 L36.1385641,21.4554039 L39.0298462,26.0609725 L36.2042051,30.4626196 Z M30.316,31.1345412 L27.6298462,26.8552471 L32.1395897,26.8552471 L34.7549744,31.1345412 L30.316,31.1345412 Z M26.1518974,36.3865412 L23.4226667,31.922698 L26.0770256,27.3956392 L28.9477949,32.0307765 L26.1518974,36.3865412 Z M20.2052308,37.0584627 L17.5549744,32.7801882 L22.0862564,32.7801882 L24.7026667,37.0584627 L20.2052308,37.0584627 Z M20.210359,26.7899922 L24.5929231,26.7899922 L22.0072821,31.1997961 L17.5385641,31.1997961 L20.210359,26.7899922 Z M17.5549744,20.9313255 L22.0862564,20.9313255 L24.7026667,25.2096 L20.2052308,25.2096 L17.5549744,20.9313255 Z M20.210359,14.942149 L24.5929231,14.942149 L22.0072821,19.3509333 L17.5385641,19.3509333 L20.210359,14.942149 Z M28.9129231,20.0340706 L26.7252308,23.6455216 L26.1518974,24.5376784 L23.4226667,20.0748549 L26.0862564,15.5314824 L28.9129231,20.0340706 Z M30.3949744,20.865051 L34.6452308,20.865051 L32.0606154,25.2748549 L27.5929231,25.2748549 L28.0739487,24.4805804 L30.3949744,20.865051 Z M30.3170256,19.2856784 L26.5970256,13.3617569 L19.3129231,13.3617569 L15.2021538,20.1462275 L18.8308718,26.0048941 L15.2021538,31.9940706 L19.3180513,38.6378353 L26.5918974,38.6378353 L30.3949744,32.7139137 L36.6442051,32.7139137 L40.9088205,26.070149 L36.6493333,19.2856784 L30.3170256,19.2856784 Z" id="Fill-40" fill="#00FCDD"></path>
                <path d="M165.338667,29.4772706 C165.338667,27.1780549 163.742769,25.453898 161.106872,25.453898 C159.256615,25.453898 157.891487,26.1666039 156.665846,27.637898 L157.614564,28.3281725 C158.539692,27.2015059 159.557128,26.5805647 161.037128,26.5805647 C162.795077,26.5805647 163.950974,27.7296627 163.950974,29.5466039 C163.950974,32.2363294 162.609436,33.8228392 156.897641,39.8691137 L156.897641,40.9957804 L165.569436,40.9957804 L165.755077,39.8232314 L158.469949,39.8232314 C163.626872,34.4203294 165.338667,32.5116235 165.338667,29.4772706" id="Fill-42" fill="#00FCDD"></path>
                <path d="M173.247179,40.1449176 C171.026667,40.1449176 169.801026,38.0526824 169.801026,33.3400549 C169.801026,28.6264078 171.050256,26.5576235 173.247179,26.5576235 C175.467692,26.5576235 176.669744,28.6498588 176.669744,33.3624863 C176.669744,38.0761333 175.467692,40.1449176 173.247179,40.1449176 M173.247179,25.4544078 C170.078974,25.4544078 168.413333,28.1665647 168.413333,33.3400549 C168.413333,38.5125255 170.078974,41.2481333 173.247179,41.2481333 C176.392821,41.2481333 178.081026,38.5359765 178.081026,33.3624863 C178.081026,28.1665647 176.415385,25.4544078 173.247179,25.4544078" id="Fill-44" fill="#00FCDD"></path>
                <polygon id="Fill-46" fill="#00FCDD" points="180.462154 28.5346431 181.086769 29.5236627 184.87959 27.1785647 184.87959 40.9952706 186.220103 40.9952706 186.220103 25.7072706 185.064205 25.7072706"></polygon>
                <g id="Group-50" transform="translate(189.743590, 24.470588)">
                    <mask id="mask-2" fill="white">
                        <use xlink:href="#path-1"></use>
                    </mask>
                    <g id="Clip-49"></g>
                    <path d="M5.29928205,15.6743294 C2.848,15.6743294 1.87671795,13.6055451 1.78441026,10.2020941 C2.66235897,8.68491765 3.95774359,7.67346667 5.55364103,7.67346667 C7.21825641,7.67346667 8.46748718,8.75425098 8.46748718,11.4215451 C8.46748718,13.9042902 7.38030769,15.6743294 5.29928205,15.6743294 M5.73825641,6.57025098 C4.07364103,6.57025098 2.75569231,7.42060392 1.78441026,8.82358431 C1.87671795,4.89197647 3.37928205,2.08703529 5.94646154,2.08703529 C6.8254359,2.08703529 7.54235897,2.33989804 8.25928205,2.79974118 L8.83774359,1.8800549 C8.02851282,1.32844706 7.14953846,0.983819608 5.97005128,0.983819608 C2.52389744,0.983819608 0.419282051,4.29448627 0.419282051,9.6280549 C0.419282051,13.6514275 1.71466667,16.7775451 5.29928205,16.7775451 C7.88902564,16.7775451 9.83261538,14.7311922 9.83261538,11.3746431 C9.83261538,8.10985882 7.95876923,6.57025098 5.73825641,6.57025098" id="Fill-48" fill="#00FCDD" mask="url(#mask-2)"></path>
                </g>
            </g>
        </g>
    </g>
</svg>